<mxfile host="app.diagrams.net" agent="Mozilla/5.0 (Windows NT 10.0; Win64; x64) AppleWebKit/537.36 (KHTML, like Gecko) Chrome/131.0.0.0 Safari/537.36" version="25.0.3">
  <diagram name="Page-1" id="biIlbYp6H_an_t_itv3E">
    <mxGraphModel dx="2688" dy="961" grid="0" gridSize="10" guides="1" tooltips="1" connect="1" arrows="1" fold="1" page="1" pageScale="1" pageWidth="850" pageHeight="1100" math="0" shadow="0">
      <root>
        <mxCell id="0" />
        <mxCell id="1" parent="0" />
        <mxCell id="--vU25BvCGadNX85F2lk-27" value="" style="whiteSpace=wrap;html=1;aspect=fixed;" vertex="1" parent="1">
          <mxGeometry x="-109.5" y="455" width="101.5" height="101.5" as="geometry" />
        </mxCell>
        <mxCell id="--vU25BvCGadNX85F2lk-1" value="&lt;font face=&quot;Titillium Web&quot;&gt;Fortigate 81F&lt;/font&gt;&lt;div&gt;&lt;font face=&quot;Titillium Web&quot;&gt;10.0.100.129&lt;/font&gt;&lt;/div&gt;" style="whiteSpace=wrap;html=1;rounded=1;arcSize=8;shadow=1;glass=0;dashed=1;comic=0;strokeWidth=4;fontSize=22;align=right;labelPosition=center;verticalLabelPosition=top;verticalAlign=bottom;fontStyle=0;horizontal=1;spacingLeft=0;connectable=1;container=1;collapsible=0;recursiveResize=0;dashPattern=4 3 4 3 4 3 36 3;spacingRight=15;fillStyle=auto;fillColor=#f8cecc;strokeColor=#b85450;absoluteArcSize=1;" vertex="1" parent="1">
          <mxGeometry x="-136" y="196" width="1137" height="318.5" as="geometry" />
        </mxCell>
        <mxCell id="--vU25BvCGadNX85F2lk-22" value="&lt;font color=&quot;#000000&quot;&gt;WAN1&lt;/font&gt;" style="pointerEvents=1;shadow=0;dashed=0;html=1;strokeColor=none;aspect=fixed;labelPosition=center;verticalLabelPosition=top;verticalAlign=bottom;align=center;outlineConnect=0;shape=mxgraph.vvd.ethernet_port;fontSize=14;strokeWidth=1;fontColor=#EEEEEE;spacing=0;fillColor=#000000;spacingTop=0;spacingBottom=3;" vertex="1" parent="--vU25BvCGadNX85F2lk-1">
          <mxGeometry x="45.75" y="291" width="63" height="63" as="geometry" />
        </mxCell>
        <mxCell id="--vU25BvCGadNX85F2lk-8" value="&lt;font face=&quot;Titillium Web&quot;&gt;&lt;span style=&quot;font-weight: 400;&quot;&gt;fg81f-fw01&lt;/span&gt;&lt;/font&gt;" style="whiteSpace=wrap;html=1;fillColor=#FFFFFF;strokeWidth=3;rounded=1;arcSize=4;glass=0;comic=0;shadow=0;fontSize=64;align=left;labelPosition=center;verticalLabelPosition=middle;verticalAlign=middle;spacingLeft=10;connectable=0;container=1;collapsible=0;recursiveResize=0;fontStyle=1;fontColor=#94948A;fontFamily=Titillium Web Semibold;spacingBottom=14;sketch=0;strokeColor=#94948A;fillStyle=solid;" vertex="1" parent="1">
          <mxGeometry x="-149.5" y="244" width="1164" height="85" as="geometry" />
        </mxCell>
        <mxCell id="--vU25BvCGadNX85F2lk-9" value="&lt;font style=&quot;&quot; face=&quot;titillium web&quot;&gt;&lt;i style=&quot;&quot;&gt;&lt;span style=&quot;font-size: 18px;&quot;&gt;&lt;b&gt;fg81f-fw01.&lt;/b&gt;&lt;/span&gt;&lt;b style=&quot;font-size: 18px;&quot;&gt;lan.rosskeddy.ca&lt;/b&gt;&lt;/i&gt;&lt;/font&gt;&lt;div&gt;&lt;span style=&quot;font-size: 14px;&quot;&gt;1x SOC4 CPU&lt;/span&gt;&lt;/div&gt;&lt;div&gt;&lt;span style=&quot;font-size: 14px;&quot;&gt;1x 4GB RAM&lt;/span&gt;&lt;/div&gt;&lt;div&gt;&lt;span style=&quot;font-size: 14px;&quot;&gt;1x 128GB SSD&lt;/span&gt;&lt;/div&gt;" style="text;html=1;align=left;verticalAlign=middle;resizable=0;points=[];autosize=1;fontSize=12;fontColor=#000000;sketch=0;spacingBottom=-10;spacingTop=-14;" vertex="1" parent="--vU25BvCGadNX85F2lk-8">
          <mxGeometry x="752" y="15.5" width="234" height="56" as="geometry" />
        </mxCell>
        <mxCell id="--vU25BvCGadNX85F2lk-15" style="vsdxID=5;fillColor=none;gradientColor=none;image;aspect=fixed;image=data:image/png,iVBORw0KGgoAAAANSUhEUgAAAMgAAADICAYAAACtWK6eAAAAAXNSR0IArs4c6QAAAARnQU1BAACxjwv8YQUAAAAJcEhZcwAADsMAAA7DAcdvqGQAAB4JSURBVHhe7V0JlF1VlZVuu9uh1WV3a+tqEoMJSCqVqaoyVFJJ/aR+JfmJFcYgMitImjAIDmgQkigiSIMIMiko2kwyIyLgwCCgARxADaulwV50C+08gGK7tPH1Pq/PK8+9/7z//vCmqn/2WntV8v+75+533z3/vjud+wKDwWAwGAwGg8FgMBgMBoPBYDAYDAaDwWAwGAwGg8FgMBgMBoPBYDAYDAaDwWAwGAwGg8FgMBgMBoPBYDAYDAaDwWAwGAwGg4bVq1f3rVq1al/8PQZ/t4LbiuDo6Ogd+Huu/3lJSeVUaqI8z8Lf2/D3o/ir3UOmRH3agr+b1qxZszc4h6vbxEC1Wp2PG7gMhfcz3ERgNObAp8ELR0ZGduNqWD7AMabCKa7xhBuNefOTcJS/52pZDkBUv7UYxhLxiVqtNp2rZ7HA69QaRaDDN69cERw1PBRsypm10VFHx9HDS40pUJYpHr5a9lmS6tKbRlY4OhT+Ej/a87iaFgPqIEHIc56wkKcsXRjcPH/34LGZOxfGvasjjqZzFs1XrzM2z1vnvcEp0zeOVtXr8uD3eqYG1/fNDN69bLGjSfAp/IC/lqtrvkAT9nII+C9PUNha3DZvN/WG8qY5SPosk4NI3gBH2bu60tFGRCvyEFfZfIHMz/TFvGvZYOjV2g0UQXOQ9FlWByF+e9brgo2VZY4+5lu52uYDtB47+yIOWTEc7OiZogoviv4vijlI5yyzgxC/2Tst2GekriX5EVfdfIAM3ysFUEft7jkzVMFF0lqQ9Fl2ByFe09/jaGS+katv9kDH5z6Z+VZ0yDWhRdMcJH1OBAchHln/qnUhV99sMTY29hIv47DQNJFF0xwkfU4UB/nEwjmOTvBxrsLZAq3HDC9jVWAZaH2Q9DlRHOSeOdMdnUSuwtlidHR0qcx0T/xKawLLQGtB0udEcRAaTZU6ibQciqtxdvBnzmlGUxNYBloLkj4nioMQ10Gb1Ar2czXODhPLQawFSZsT2UHWrFmzgKtxdjAH6W6agyTAHKS7aQ6SAHOQdLi9d5fgc/PfEFzZPyv4+MI5wVmL+4JtSxeEy3WOW740eN/QouCMwf7g/EXzgs8M9AY3zt89uHvO9MJXK5iDJMAcpHVSpbpkwZzg/UsWBP88PBSsr9Z1HlvifihzWnZODkXOdefc/FYxmIMkwBwkmVSJzlk8PzgGLYG/JyUr7oF7pdbnY2hxPpfhNgNzkASYg+i8CZWS9sDsW79QrhAeuLISnLZkINSl6W2X5iAJMAf5M7/ROy18xYlZYt0Mn0N5Pom/3wRvBy8Hz8FnHwDPxr8v5s9uBL84Ojr6KP5qdhoycpY7U1hQag6SAHOQnYMvzd01OBX9ib08+w34U1Tuu/H3AnBTtVqt1Gq1V3GRtoRt27b9BZ7BXNg5EDwddm/F32dALV+H9Lr3ocGB4P7Zr1fvqxmagySgmx2EKsfJSxc5NhvwXnAzuDsXXaaA0y1GXrQN4Uvg/4KappDUXzl7cV/wEFpA7T4b0RwkAd3oIDTEemL8vueIz4NXg0eCU7i4CsHatWtfAw2Hg18FNa0h6dnRK6J2z3E0B0lANznIg727BFvQ8ZY2FP4GPJdee7iISgW8gq2HvuuF3jpSlJDr+maqZeDTHCQB3eIgV/X3hJ1bmd4j9SvOKHU0PwFUjkHovUS5j3HS5GTSzlBzkARMdgd5eNbrgg8uGXDSefw1SDFqC32NaheoJBVov4nvpY40TH1V/yy1bIjmIAmYzA5Co1NvWbHcSSOJe7+kVqv1cFFMaKA12YD7cbZOS1InXisjc5AETFYHoQm1dfGz3rejQq3iIphUwL0dB/5Y3Os4aWb+a96QsDlIAiajg1w+MMu5TpAqzuF866kBD2pamfou0PMG3OdnxH2P8yD0w8gporIyB0nAZHOQDyxZ4FwjeCfYy7edGmCTzrgI80CrdBp/XArg2R4AXTsifRHHUNGifok5SAImk4M0WCJyLt9u6kD5PenldSk+3un/vy0e0Pd34FWexpCXLphtDpKEyeIgG4djneNIvtXUUalUXqTkR53/+2hyjy8rBaDrUl8n8bxF85z/m4N4mAwOQsvQ5ecRaY0U32YmQL/jH7V8I+KVq9hw/R7wrOmINVVrRHMQDxPdQU5YtsT5LGLWzkFAK7GblrcknOQwvrwUgKZDfY2S5iAeJrKDnDikr6fKwzkI9IC0/BVu5SSlAA1xe/rGaQ7iYSI7iMa8nIOA/MZk3lS5Ng/Frg4um5NsUDSag/iYTA6Sp3MQUMlOkfkft3xJqPPk+AWRpXISPPu3+RrXjI6GG8f8si8DyXmlVpT/AN9KdphEDnIg31JuQJ7OqtpzxagaBWCQ3wmWykmghzZ9ORqPXb7UKfey0BwkgQ0c5EN8O7kC+T4hdVDYH6m3wSLJsjnJA56+MDyRvJcy0BwkgTFbYm/hW8kV69ate6WvhU5D8jX78wyCpXGS9evXvwx6nPMp16wazTX8UDO0PkgDflUJfw/+gm8jd+DXay+p5dAVw6pu4tX6CUnEE9hc4cD9OFH+iXSAq3Y/RdF3EGtBBClAm9RJRKd8Jt9G7kC5UZSScS20t13THZFWF8vrBQ9lk4UD97TF1yf7VUXTWpAY/utAr1MwzPP4FgoB8r9H6qFIi5p2yZj7IOZ33l4DUIQVaHH2vdN7/7dmvU69n7xpDqLw0Z4p6JzXBW/bUalUXsi3kDt4iQntXQ/10L6TB3p3UfX7vGDhXP9eIi5h84UClW4atDhRVCiAnnYvedMcROFH0cRLfURoXsjyCwE00KakcT3vHVqsao8jBbGW6Zk/AXMJKZQElO/5UttqsAwd9lI4CHGParU0pIfj6fssSy8M0PAdqemKBnu+40gBFaQN5iPgqzmbwkBB8KDjOaErWItWUns+eVLqIebSSUdGFNGvLvOSkmJV7cLSCwHyrwk9YVCE78yaqjpBEulYBGmLiId+R5GvjxGg5WRfW9mIFmSI5WYHPJC3a5mXlPey7MIADU7nnI5A0Cp/M6RIiFpQCbTqF3F2hWFwcPDF0PI7X1uZiJZujOVmB+0Vq6ysVquLWXYhgAZaButouqHJAG1x/Are7bUI8ngux3C2hQE6PuHrKhMLmQfZBw+LtmEWyZuVOQMUxq0suTBAx5elpiMry9RK3yrJyaRd5h/wbFZw1oVgbGzsJdDxrNR1eGW5+szyoNRBLMRByjCKRVEQpSYiCqPQMD3QcKyv6YqB1jvncbxIH/59mIaUWUIhQP1wdiFSRHkKxqfdQ9a0YV7mCcvrdgn+gOUWArzaTYWGH0pN1MHWtHdCmm+QeTCvYBmFAPVjBjT8SWpqZlI0C5qDgDRrqwztHstyCwHKyJkXIF7fYd9D47dx70fgFcbPC9zMUgoB8v+i1JPWq2WrNAcBL144xykE8LlKpfK3LDd30Kudpyc8OkHTngZvnbdbOOfg5wkd61lS7kD+zs5Joh+hMQ/acnfwbfWxra5jqYUA+d/l6QkrsaY9LdIrjJ8n+HitVtuZZeUO5O901mmFg6Y9S/otSNc5yCN4xZBaiNB3MEvNHcifTpRy9ND5Ipr2tEnzK37e4DksLXcgb2f3JK2u1nRnya5/xfps/ejVn/Cr+XKWmiuQdz/4W6ElXDSZdN5GWvxuz1Q1GF4us8cKkLcTLog2VO3omaJqz4pd7yDKr2ZhM+fIu+7MjU8P9Kq6k3jPnOnBSUOLgm1ofW7sa/4Y51vm14/9gzexxFyBfuA/IG9nNIvmqzTdWbHrHUQ5AepdLDNXIN+jPB1hUGxNcxK/Dx6yYtix1YqT0HHPMi0R796FvHYi7/uljg8P9quas2JXO8iDvdOcmyeiAOawzNyA8qBx/6eljiMqy8L+kaY7ieQg0lZEmhnWrvdJ67Vo66uX/mGa5WbJuQGO+X6pg8pF05wVu3oUi35VpQ7w+Q0bNvw1y8wNyLfuXA161dE0N8uDvRYk4pfn7qpe7/OTC2bXpUXlOIUl5wbk6QSbo+FoTW9W7OoWRFlq8X2WmBtQFnWB1D6WQvibmBnykLc1OWSsxCD+1cjISK7Hx6F8Znkagu2zm9tJmQa72kH8Djp+rW5gibkAee4O/khqoCPLNK2tks7hkHZ9UideSyf5BTiSkvZilp8L0KL/JfJ0tuP6scCyZFc7yNHD7uYhet9libkAeV4n86d95s2+AiWRDhOVtn3uWR0J+xpaWknqFHtpf593K4Ln8qjUkOe6rK52EH9PBHTtxxIzB/Jz9pgTKeCbprMdPjJrqmNbI60gSJpXoMAQ5Exe2jP5NnIB8nN+SE4bHFC1ZsGudhCpgQhdfSwxU9Ax0MjvlzLvo4aHwtEnTWe73FC/Kepq7//hPnUtreSHUCG9dD/NcwkK8jtd5p/Wa2gz7NpRLNpfIDUQ8dCns8RMgbwu9/OmIG+azk6ovEJehL8UpMH5/MKFc9X0EWkHop8GPJlvJ3OgvrxH5n0M7kvTmQW7tgWhVwepgQgHeRVLzAyopG/286VfaE1jp1RO372NWklo+IP3eWLHl2blvTRP5LUkB3o3yrzznAvpWgfR4u5SlD+WmAmq1eorkI8TvufglcPBt2ZlczbGx71l/Cj3R0kH/l0XVYYCOWiBsCPGhDE9LryxjIF83iTzPXhlRdWYBbvWQZRRnv9heZkBeTjv0sTLU9xC61PZZ/8cS6Ff5dO874KtCauG6QwPeT2e47fZXKbAD8tqmS8Nrmj6smDXOoiyIf8nLC8ToELO8/ILX1s0bWlxu/IaibJ/LUsih73Z/77RrkVyZv963Ffm+/aRzyKZ5xgqraYvC3atgyiTYD9neZkA9j8i86NzR+g1T9OWJpWtxItYEo2mTcf/nTM6kvZcHOQt7sSzPJvNZQaqlDJPqrSatizYtQ6ijMw8z/JSB2xPAX8u8grOXtyn6opjFIam1YiKe9TPYYyyrBBoAd7hfR8Gu9ZsEU+vnzh8nE1lBmgckXlSmChNWxbsWge5b/brnRsnViqVF7HEVAHb75P50Iw55a/p0njO4j8H06ZDc1ppefZD2cq8UdmcfeZ8/MCD8hp6HnEriT+v7BeBzWE2lwlQKfeW+R1gnfTsScsspAZm6kGcYfOl4L+LPFoOHbrJO8iH5je06zT6+0LAN7G0caCC1w09N1rOcZhnE+nPYlOZAPXlLTK/t65YrurKgl3rIPSqIjUQoWsGS0wNsFu3Eer2FgMwKEs9gnOaDGDgB6RAZT6MpTnAd85uxkZhduj1UF4LPsVmMgE0O7GcadWBpisLdq2DEKUGYrVanc8SUwPu9RqZx7tbXCahTWgSaUNTM/0RfzYdPIqlOaDXJO+64NqYES3t9RT3uYxNpQ7Y3iLzemeOS018B0E5dc+GKXqXlTqgaw+WmBpg9ymZx2da3GOuhUSN2MyqVsVBYg/xxHdXyGsbHdJDLYy8FszsBF3YvlTmRQMFmqYs2NUtyPH14UbfxxJTAexRlBInj1Y3+1DAON9GxGaiDfoOgrI/ieXVAb+OB8lriXEDAnSmubwOaa9hM6kD9p1BhE8tmK1qyoJd7SDKKtVUT5KCvU3S/sYW1xDRQIIyTOswaXegsmDxHSyvDrTdGNf8Ql4fF6ztqv66ScMdbCZ1wLazdqzZvfVpsKsdRNl1l+pDhj0n8NlZLc59yOFdwc/K/5852Nim8oq1P8tTge+d16y4s9jvUDZksYlUgbpCAS2cfJrZ6JUWu9pBlBhQz6e5YBG/1r+S9qlSaTo0UiXwN3TB3qfwd6X8jIZxtfQRlRak4ZwFns06eT3xXuU16xvKMHmtVkt9pyH07iXzsKANOZIim0sdxGq1OptldoSxsTEKejZul8640DTEUWs9oC087Qr/dpaHNAqm5sf9QoXbNRTYALjOec2KG82iSIfyOlSe1WwiNaCuOCNYNCekacmKXR+8ml4hpBZoO55ldgTYmSvt0torLX+NWusBe1exabLtHDDTaNmKvI7YTNR6VIJbZZq4fsjeXv8IulLfsgy7X5V50A+HpiUrdnULQvxgfRTBL7HMjoBKtlbabWV5hDIRR79cI2yabDuxouJ+Ve+vn694lk00BOzTq9x4urh5B2Xh4tvYRCrg/TNORJM8O+jErneQa+rnGX4PvpSltg2qLNIunbOn5e+TKrUyc34zmw2B/9PiR+camlD0bSmbnJqK+wUHOUOmi9vB58/S457fySZSAeztJ+1b8OoCqPVDwI6P+oWNrdImdZa1/H2eXj/0TBWvymbHgc+3y2uu6K/feOXvKETFv5uTNwSuc1b4Uj/Gt01UHORENpEKYNOJOJl3/4PY9Q5CVM4Nv5Cltg3c4/HSZjOvWHfOmRF25mU68Dw26QCfO/tLtAWQJw7VTTKeyskbAtc5W3Kpr+HbJiqBv+sWQnYCOOrPpP00wyI1S99BoKm7OulE2v8g9YBPs9S2gYI8TNpsZhTrVC/IAsrpSfydwiYdwL7TD/GHeymEkD8CA+7JyRsC1zlns8dp9zvp4PhmrE4BW0s824UcwWYOAj6I93d/5x007sNy2wJs7CntEWnuQMufSIEb/AqHh3E0m6tDrVbbWV5LpE1gkb2rlTVcIyMjr+fkDYHOsTMXEjcC5w/zpnl8NMr/KmnbDvFUxOVJOmJZagK/xnLbAip33epYChSh5U28VD8jUG09IuB7px9CfY7IHgVgkN+B93OyREC7sz9Em02/s35H5jOcvGPA1qvBPwrb4aoHX0MeNAdhUidXamJ29MqAivY7ae+avh41byKdQyivBb/JZmKBa5x+SBRQjV6v/PM9UObv4WSJgG4nDhVFM/H1KicD38XJOwbyd0bR6BWv3bNSOmUpHIT2GEd7rouiFvcJD6qjaO+4zxukvYsb7PWmYWB5LdKez2ZigetqMg2RNmPRalf/81aWgeC+T5RptfCkJy91A8lBbyrBGwYHB18Me89I21Q22jPLg1IHEWWTfx+kzOxkExUK0xkuPWH5krqKFlFex2ymQ70TrvuhTEez3soS+Vv4+qaA6y+W6f1jz3b0TA3291oo3OsRnLwjwNap0m7ZmJeDOEOgZSa0fp1ltwykd+I5EeP2g/jX4UE0FQgB114p05GDyP8z38iXNwVc/2OZnpa2S61XKq+jab16wJYT1LtsRH3I/qxGZHKAlnlZCb1tR31HemezT9xYPo0UyetacJBtMp3ClloP3Osevg0/JCltG5bfQ+utnLwjIG8nOEMZiTeKvVludkBBTJhXLGbbR0MjrVOBKSLHd/CKIisckeLNyuuadRACrv+CTCtIgwStth4XiPR1ARJiTp06lJO3DVpECTtOy0VL2/eoVgul1MOsseTs4DtIGUaxJGPO99uX5bcEpKt7zdI2OVFEQ3kNXlma/qWiORE41B0yPfhv+LUb4kuaAs1jIJ2zh/4j3upZZTj8P9I4/RZ14sPSLs1L3Z1D5MkkKn2ttSw5O5TdQeh4aAruJjWC/4mK+Dd8Cy0B93utZyv4/Dx3Vaoyi34JJ28aeHirwI1wrsF2Ki3y3Sw1EOVeE+XQU9LZ8QJFOPJU2HK21VJ5yPIpiuYgMdQ2LKFw2jrDkCqsb2vj8DInbM+nB3qd78HM9nhrWL9+/cuQ5+NSAy1GjPTRbkjlR6PjuQ/awYn6cJ+0S/vwi5r38GkO0oDaWeOo7NP4NloC0jqTekQ5vxBz6GZqa5uSgGfiBGcjRidPPdozpW5jGZFaLE7eNpCvs2OQeFmLoZGypDlIA9KJs1In89d8Gy0B6WgPxxPCTkha3k55fQ8dd5ow9b7PLNaUBDrIL0RezsE+tNAxGpKmMwHld0Q8w44nBlHZlvp284ya2Ax9BwGtky7pD78y7+FbaQmoEE4AgohRS6LsBXkY/Z7MjzmDrroI75HjKsdAE7dz0rbBr3TOJCc5pbbxq0haC5JAZUl3xEv5dloC0tXF6iXS8K/2moWy+jAnzQSwvxD5/Fbm+dbK8vCQU4rjJT+PiE71Kzh524Cd7/p2qR+mPYMiaS1IAhs4CFXeLXxLLYHSafaotXq3EkkR19ftKEwLsO0PD4dRTPzPItKAAydtG7Bzpm/3HTnG222F5iAJbOQgzHfxbbUENNXOhqcEtvVKlwRoOMXPS4k2GfH3IyMjHce9wrN3IrIQURmCb5Vk1MqnOUgCm3AQ4ia+tZbATuIEl4sjyizV2LeagypbjyPuSMM5YOdGz25IWlKulX0ZaH2QBPoOQhHP5f8jouBid/81AtLR4Z7O2RxxRLldy8k6guYccSTHxN9dOGnbgJ2v+LYjmoN4mMgOQgfX0KiT/CwiCi82MHQSUCY0D9FMa9JRQIkWnONPuDaVKCWwda9n26E5iIeJ7iD0ubIDMOJmvs2WgcJvtjXZxklaAtKNeXZUQscd6Iy3tI5Lw9q1a18Dew/49n2ag3iYDA5CpFA78jvBtipwBDwEiohyu2dTst3JSmcyUOEPwNgDdlpBtVqdCVsPC9vj9Dd0mYN4mCwOQlRCl4ZEQVJ8216+5baA9BT65jzwJ2QzImy31WFH2kekHUHqPB+Y1im/0LcXnvGjXh4hzxzsr9vKag7iYTI5CPEMfbaZOrg/QoGqh2a2Ao4Uvwm27obNtpd4IO0xkTbYegz/3wLO4q87xrp1614J2+dGefiMToYyB0kAHsqkchAiHY4jr5NEoZ7fTFT1PECLLaEn9XPNYZOW0agtFFUyOl89KitzkARMZAeJOwqASKFw1uu70Ijb8V5e4SKYNEhqNShkkL8P3xwkAZOxBYlI0Q1PWFZ3OGjEP+Le39nuxquyoVGrQdTiBRPNQRIwWVsQSYr3S3uqZdqIKOTHQFrm0fEEXBGA7uXgJ6P78bk/nidFitTKhWgOkoDJ3IJI0i48ZQ+35G9Q4BeBS7loSg3opBbjZu8eHJ62ZCCMdayVR0RzkAR0i4NEPHfRvLrg2D5RJp9D4W/gIioN+vv7/wq6joDGhrPhxy1fEh6Kqt2/T3OQBHSbgxApXI4fTyqG38BDOIPKiIurEFQqlddAx4mgOp8RMel1SqM5SAK60UEi0mvXqXgNaTDaJUlxouhc9MPBV3PxZQLY3wUPfwOeDYXfuQt8FtQ0hRxDpW7mdUqjOUgCutlBItLQJ0VZ9A/CTOADKLuT8JCW4u+MDuZWdqpWq4th4+0gncNBS0y0/OpI0VgoCHcnW2PNQRJgDvJnUsQQ2mp6tBc4rgXSdlmq4F8HaaEjBZ7ehjKmjUmfBqlTfQ/4CD57En9/DWp2Ykk7HWnIttk+RhLNQRJgDqKTgrT9y+K+2L3geZMOHr0E/Qs/Nm+nNAdJgDlIMr+OV7DLFswONg8tDvatDweUOmmUjULuUBQTiuZOx1FrutKgOUgCzEFaJ0U8oT4LvYrRibnKabgtkaIXUqCECxbOC0fYvqsE1M6K5iAJMAdJh3QoKAW3u7avJzyfkFYVvwctDk1OnjS0KIxt9TE41WUDs4Pr+mYGd8zbNWwZHhEhT4ugOUgCzEG6m+YgCTAH6W6agyTAHKS7aQ6SgGq1ulpmWm4HcUeQzEE6p+8gFJNXu64M9B2Efty5GmeHNWvWLJCZlrmArAVJnxOpBaG6KbXCQRZyNc4OK1eu/CeZKTHPYcZWaC1I+pwoLQjVSamTSHWXq3G28DO+vm+mKrJoWguSPidKC6IF8ebqmz2Q2S0y483itKUy0RwkfU4UB/Hjd6GDfgNX3+yBzCg4miPgzjkzVKFF0hwkfU4EB7ldP+76QK6+2YOWaiNDJxbtISuGw6PINMFF0RwkfZbdQWilAY2sSo3gz9MKrNc0kOl7PRHhATKa6KJoDpI+y+4gtH1Y6mMex9U2P1ArgletJ30xJLAsB6rYKFb69B2kLKNYD/VOCzbq+3Ie5yqbP6rV6mwIcM7II9KZ3BT3Nq1NOu3SWpD0WaYWZEfPlODGvt2DrfHR+p/Fj/iuXF2LAc2sQ8TvFHHjfPPKFeF+hU05019Wrl1jbJ2yTFevGlWvyZJUl/xZcoXPrF69ehlX02JRq9WmQ9AOT6DRWBS3g1O4epYH8Nhj0Jr8zBNrNObF/6YpCK6O5QREvhQ8FrQWxZgL4RQPgUfkPpTbKdCi9EE4xWuisy22gtuKIDTQeeJ0vrf6vbFlng7ehnKl6Cva95kS9WkL8j4af/fB/3fn6mYwGAwGg8FgMBgMBoPBYDAYDAaDwWAwGAwGg8FgMBgMBoPBYDAYDAaDwWAwGAwGg8FgMBgMBoPBYDAYDAaDwWAwGAwGg8FgEHjBC/4PAt5YUAC46QMAAAAASUVORK5CYII=;strokeColor=none;points=[];labelBackgroundColor=none;rounded=0;html=1;whiteSpace=wrap;" vertex="1" parent="--vU25BvCGadNX85F2lk-8">
          <mxGeometry x="1057" y="1.5" width="82" height="82" as="geometry" />
        </mxCell>
        <mxCell id="--vU25BvCGadNX85F2lk-13" style="vsdxID=6;fillColor=none;gradientColor=none;image;aspect=fixed;image=data:image/png,iVBORw0KGgoAAAANSUhEUgAAAf4AAABkCAIAAADoh8XjAAAOmElEQVR4nO3dv2vcSBsH8MfHVeFql4umWHDhLqlSWSqcW4KLq1JemONirsib5jAYEjZLDgzm4CW5wjgvDNemNsZ3W8xcleKwOxcGFTO49D+Rt5hdWdkfknY1mpW03w+ByNrZeUay99nZmVmJvnz5QgAAsE42iOj29nbew51Ox2NjAADAjezE/m2Z5wMAQD11Op2M7P2Nz6YAAEAdIPUDAKydjdwSGPABAGic7JnanGleAABomU6ngwEfAIC1g9QPALB2kPoBiIiMUsZTJCGE8BRLCSGErwPzeA6hNKR+ADJKSO0rFkU8Iqm8xNJELGKBj1hESmrt57igPKR+AApCHjFfsYLAEBEZH8GiiIdaevmMYcQwJoqHyP3NgNQP4JUSQmsiCjzE0lIqpclHt99I2j3i/GhX+xrMglKwuBMAYL00d3GnEffTV/fbo1km+59JZrimChAZdSiqmwAbh06iqNGGGT9eKm6Bpy8RYXTWhDBTJzL1w7K1A0Ct5F++rYaUkBHngTHGkJIy4jwgJYRh9GGo6YhpzUKSmkWckREiXUCzMCQirbsR50FFzRuHlnIURQkdcR4oIQyPtJCaReHC1RolpGYRD7Ueam23hNDEIs60kGT/04yR1nFM++FiIQLSwjBGRIpIUxiSkloThUzfn9Uwacbi7QeA+mhor5+IiIIgCMx4IJMRaaK9fabFkIgo5BHTSp6enn1VIBFLpSrqvI5Dy9hGMUTx2akQgiIeLDqjaJQ4HH040fF4ZzfiTEtjGCOKh9JoTVFI4nRIdPbjB+J8tzv99NxmMyY1RRGR0MTSs3b3Z5X8zogCQEUa2esPGQmhGGmKOGfyUNAuaRZxkppCzoY/aOJGSUmMqPsfplMFhlIpxu5Tl6lgum0cmoi6URgGRKq7t7/kh4wg5EchEZHR1GVsKFU4br2WUjNG8egdLWDdLrHuQ4qViGPa//rpBTCKJfGQTs9on9tZu5CU+GFI/+Wjs7rMEfiFO0w0GuYdvcE0L7RKp9NRSj19+nTVDYHFnJ+fh2GIXORHoVu1ADSRMSa3zPb2dsaj19fXuTUEQdDKWDacz1hFioFDSP2w1u7u7mbu39zcRKwaxgJXmjzNCwAAS2lGr39ra8tbrJubm+wC/icSXQ2A1uo0AsAKNSD1b21tFRlzpMxhR7djjre3t37eAJwH8nkma5v9s4enp4sVPOS1ilUwnKtY4FwDUv9CZg47Vjfm2O/3k+3BYJBbJqNYwdq88XwmPZs3PD1doPwhtzLW9va2z+MC59qW+n3q9/t7e4/t9qNHT/747WC6zMvXx0kZazCgYiX7K8/+ANBWmOYFAFg7bej1r3bM8dGjJ0UKXF7+Xbykq7Ytqn2jtwWHv5eoZPrwEat8LPCmDamf8oY4/Yw5vnx97Lykf3U4k27lDkkv8fR5h19FLCLa3t6ezpJtjQV+tCT1r5Dtzs8cvreSRF+8JABApTDWX1buMM4SJQEAKoXU70BGR37i0eIlAQCq06QBn3nTTcUHIu/u7uZV4mrMMRm0yc3jxUs614gzCQDVaVLqp9LTTfNqKDlpmR6j//P9O7vx/NWbMiWrVs8zCQB+YMDHAdtt//P9uySbp3+cHvApUhIAoDoN6/XX08vXx+lUnvbn+3fpTn3xkgAA1UHqd+nTX5+T7Wffj67KMDOnFy8JAOAcUr8D6Y78xcVFsp3k9CVKAgBUB2P9znz66/PFxcX/fs+/5lrxkgAAVUCv3xnbc//5177DkgCwkOT+Fhk3OCpSxk+1K4Rev2O9Xs9u5I7h2JK9Xg+jPQAO9Xq9Xq837x5HnU7HFnBbbVJm0WpXBb1+B56/emMH8W0Sz0jlxUsCAFQHqb9yxRftYHkPgEMV3UXV/925q4DU7wbyO0DdPHz4cHrn1dVVFdU6qdknpP7lDQYDov7ErXfnOTv7XLwk1eDevADQYkj9pSBB15/PywohFjQFUv+SCnbhYbV8XkYUsaBBkPqX5Ke//9NPP3mIAgAlXV1dNWhlJ7lN/RMT3434XkMZSqmMR8MwfPHiRUaBjx8/5tawZMuAKAgCxGpQrCpcXV1NTMmWn4nt9XoXFxfOq/XPTeq3Sd+OgZycnPzyyy92Z+uz/0R2nkjlHz9+9NscGDk/P191E2DFbB88faUscvSVK5v9Z4ZrEAepv9PpJAPfOzs7//77r83+/X7fbfa/vr6ed2eo8jUv/+Qv442Nr3Zn9+gz2LeTpZ9eRE3PJIBrFWXkxiX6aQ5Sf8aEZxXZ31VVTiilwo3wPvs3R93OJIBz031zcpG1K6rWs7KpP93lX2sbbvrpYRjSl8kPELCop0+frroJsJiKxugmspOr1RkVVetT5St8nHf862bU8XfrC7mvc80YYzxEsROh7Ytlw/mM5bbCpGM+nZRn9tlXW+1KlE39/X7/5OQk+fHk5MTOfad34vsgBY0mjb10+ddkrL+iw6RZR4pY5WM5cXFxkb24jpZaglFRtavioNf/6dOn4+Pj9J4WrHxayMyhniJLMyeeOPFjdYs7t7e37+7uKqq5btm/iiOd15vxeVbbGgv8KJv67Qefg4ODZM/x8fFErr+8vCwZpaFy1/V7awnAusl4feV23pertlncjPX/888/dmNnZ8du2KX91MwJkIJye+W5fyX40hZAdXDlzgxlU//t7W32Ip+2TvBiXRMANJeDXv+87G/7+229Cg2u4QPQCElnfF5vvVbVelM09W9tbSXbNzc3E4/a7E9EOzs7BwcHz549GwwGbe3vp1XX92/xQBmAZ3d3d1WsM6yoWj/yU79N+jbd2xX66T2JdKJfk3ndfr+/t/eYiB49epJb+PLy7yLFbEl7txYAcKKiBN3cvE+5qX9ra2u6j2/3zHxobdmbrc+TviljRkncuxHAuYoGZBo6zpNo2PX6K3qbdbhs+dNfny8uLnq93rPvH2cXS7aTkn++f4fsD9BEV1dXL168aNDSz6zUX7d+/ebmZkVj65ubm06yv837NP5W93T2T3f509/8zn6fAIBF2UQ8/fXSMov6q6vWv+V7/Tc3Nyt5b6hi/rPf77vK/kXYd4j//T74+VesEAWoynQ33EmCrqhazxo24NMOto+PvA9QtYqSchNz/YSs1D/dr08v41npcFCf6K2Let4SufwMYXP6vNGeCfZeP7mzAgCwBFzIIVt+r3/ijruJBw8euG5McW/d1eN4+OjZ948zUvnzV2/scL8tg6QPUB1cyCHDN7klZqb4Bw8erHQG+G3N6slal1l80Q6W9wCAHzmp/+bm5ubmZiL7z8v7nRSXbZxhQLTh4p/LLn+RxP3Hbwfzij1/9eaP3w5mPgQAS7saa0S13hSa5k2+w0WzruKQZj8KNfd0lGTTuh3SmZniX74+Tj80UdI+CgBu4UIO0xZY4ZOd9Cd6+u2+KeO0dIfdpvL0niSnT/TrM0pWbeaf7ELLW5vyR1/ySBc6TJ9nta2xqoALOUxztrgzuYJb8qOrmhun+LjNqkZ45t0aqfjduzY3Nxtxf6WZjVz0joMFj7R8rOJnta2xqoALOcyUP81b3O3trR38WsO8n9FbTz+U3anHgA8A+OEy9RPR7e3tGub9gi4v/151EwAAiJr4bd4qLuOzs7NT/voQuX12e9FmdO0B/Khovcm8attz+bYaqugGJoPBwMkFfGaO3U/n+oLFViKZuZp5Qho9r5W4vr5Ohqrn/d5dHSlirQou4ZCtSanf2+XVFmVHcmbeieXl6+NknCfZePToyczsv/IRoWQuLmMSrxGzu7nsUWTPVbo6UsTyr6Led4M69bmWT/1GHUrdJWIRDynZjkhKTSyK6FTq7qhoHFN3N+Jh4KTJAABQzvKpX+tuxHmghDIh2W0iJQSLOCMj5WgP2Z1tzPuDwYDoq4mHmYM2M++2mF0SN+YFWE5Fy0zat3qlzIBPLNVhPNw9OiJFsVSKEQt5ZJSSQx13Y7J7XOT8IHBQSRWK5OjiedxDxi94Jr/77rt5A7W1/V0sx9t4dHpwHLFg5cqk/m4Uck5CmJCNdyklNbF0IVMigFWrO4VZ1V+kqJJANTyT1Sn/FlW8BsQqWcP5+XnJQLCoDWrjZxlYW51ORym16lbAMsIwRC7yo9PpNGmFD0ARYRiuugmwDOR9n5D6oVWQPgCKcHwhBwAAqL/2pH6jlEn+M0oIIZQx6tBueG7KV9GFUqMNQ0RkyjZodKQli8x+ihHCTJ3L1A/koP115PmgFv/1LMkoIYSfqY/VvNZmRzdiVlPGf8n2ofEfdOZrpaJq66A9qV9rnfynpGYRjxhJ3Y04Z1oajy2ZiM756HsPnElhyFDEOUmxcIvsq9gQaT2Udmv0FkNGJf8JpYQQp0O9aPUBaWmMJtKKtKaASEmtpSKtP5wKNT6/y7e/zvwelFJDWvj3s1wkqaOIMeMjll7Fa20iOmdSKFJCRpzziJEhImPf+4wSUhPd/66JaansqzXwXW0dtCf1p4U8YlrJUxlTLJXSsadX2szoyhDFZ6dCCIp4QEFASuho9HW3XEaJw1E/Q8fjnd2IMy2NYYwoHkqjNUUhidMh0dmPH4jz3e7003ObzZjUFEVEQhMjI4YxUTxURHv7TIvhqNiC7W8GjwdllNBst/o4RERGx0QBSU/ZeAWvtSxBEARkjIxjrYwJQh4xu3v0uw4i0kppFgV1qNa79qT+kNGpUkITC8goKVfXklT0bhSGYUDU3dvn3H6jWR2easa0KVhZEPIjHgZERlOXsaG8//SupdTs/ksUAet2Gdt7SLESw3jy6QUwijUFAQ3PKAqMpN0jzo929YeYKOSMzmypBdvfDB4PKgijyEMYGyvqklSaat7/dCOWSolTYiGFjKRQ9pNwEPD9/ShMfb3g/ncdRGw4zDs5FVW7eljXDwCwXjqdTnt6/QAAUBBSPwDA2kHqBwBYO0j9AABrZyO3BCaBAQAaJ/u6v99SZnL3dnViAABwa15uxwofAIB1lH/lTnT8AQBa5v/85Kqv4uT1BwAAAABJRU5ErkJggg==;strokeColor=none;points=[];labelBackgroundColor=none;rounded=0;html=1;whiteSpace=wrap;" vertex="1" parent="1">
          <mxGeometry x="431" y="152" width="419" height="77.95" as="geometry" />
        </mxCell>
      </root>
    </mxGraphModel>
  </diagram>
</mxfile>
